<svg xmlns="http://www.w3.org/2000/svg" width="32" height="32" viewBox="0 0 32 32">
  <rect width="32" height="32" rx="7" fill="#00d16a"/>
  <g transform="translate(5.5 5) scale(0.265)" fill="#001222">
    <path d="M0 5.83333H11.6667C12.9558 5.83333 14 6.8775 14 8.16667V19.8333H2.33333C1.04417 19.8333 0 18.7892 0 17.5V11.6667H5.83333V16.3333H8.16667V9.33333H0V5.83333Z"/>
    <path d="M65.3334 5.83333V19.8333H71.1667V9.33333H73.5V19.8333H79.3334V8.16667C79.3334 6.8775 78.2892 5.83333 77 5.83333H65.3334Z"/>
    <path d="M32.6666 25.6667H44.3333C45.6225 25.6667 46.6666 24.6225 46.6666 23.3333V5.83333H40.8333V16.3333H38.5V5.83333H32.6666V17.5C32.6666 18.7892 33.7108 19.8333 35 19.8333H40.8333V22.1667H32.6666V25.6667Z"/>
    <path d="M63 19.8333H51.3333C50.0442 19.8333 49 18.7892 49 17.5V5.83333H60.6667C61.9558 5.83333 63 6.8775 63 8.16667V14H57.1667V9.33333H54.8333V16.3333H63V19.8333Z"/>
    <path d="M30.3334 0V19.8333H18.6667C17.3775 19.8333 16.3334 18.7892 16.3334 17.5V8.16667C16.3334 6.8775 17.3775 5.83333 18.6667 5.83333H22.1667V16.3333H24.5V0H30.3334Z"/>
  </g>
</svg>
