<svg xmlns="http://www.w3.org/2000/svg" width="56" height="56" viewBox="0 0 56 56" shape-rendering="crispEdges">
  <rect width="56" height="56" rx="8" fill="#161210"/>
  <rect x="1.5" y="1.5" width="53" height="53" rx="6.5" fill="none" stroke="#c1121f" stroke-width="2"/>
  <rect x="12" y="8" width="4" height="4" fill="#efe2c8"/><rect x="16" y="8" width="4" height="4" fill="#efe2c8"/><rect x="20" y="8" width="4" height="4" fill="#efe2c8"/><rect x="24" y="8" width="4" height="4" fill="#efe2c8"/><rect x="28" y="8" width="4" height="4" fill="#efe2c8"/><rect x="32" y="8" width="4" height="4" fill="#efe2c8"/><rect x="36" y="8" width="4" height="4" fill="#efe2c8"/><rect x="40" y="8" width="4" height="4" fill="#efe2c8"/><rect x="8" y="12" width="4" height="4" fill="#efe2c8"/><rect x="12" y="12" width="4" height="4" fill="#7a0a12"/><rect x="16" y="12" width="4" height="4" fill="#c1121f"/><rect x="20" y="12" width="4" height="4" fill="#c1121f"/><rect x="24" y="12" width="4" height="4" fill="#c1121f"/><rect x="28" y="12" width="4" height="4" fill="#c1121f"/><rect x="32" y="12" width="4" height="4" fill="#c1121f"/><rect x="36" y="12" width="4" height="4" fill="#c1121f"/><rect x="40" y="12" width="4" height="4" fill="#7a0a12"/><rect x="44" y="12" width="4" height="4" fill="#efe2c8"/><rect x="8" y="16" width="4" height="4" fill="#efe2c8"/><rect x="12" y="16" width="4" height="4" fill="#efe2c8"/><rect x="16" y="16" width="4" height="4" fill="#efe2c8"/><rect x="20" y="16" width="4" height="4" fill="#efe2c8"/><rect x="24" y="16" width="4" height="4" fill="#efe2c8"/><rect x="28" y="16" width="4" height="4" fill="#efe2c8"/><rect x="32" y="16" width="4" height="4" fill="#efe2c8"/><rect x="36" y="16" width="4" height="4" fill="#efe2c8"/><rect x="40" y="16" width="4" height="4" fill="#efe2c8"/><rect x="44" y="16" width="4" height="4" fill="#efe2c8"/><rect x="8" y="20" width="4" height="4" fill="#efe2c8"/><rect x="12" y="20" width="4" height="4" fill="#8a7c6e"/><rect x="16" y="20" width="4" height="4" fill="#8a7c6e"/><rect x="20" y="20" width="4" height="4" fill="#8a7c6e"/><rect x="24" y="20" width="4" height="4" fill="#8a7c6e"/><rect x="28" y="20" width="4" height="4" fill="#8a7c6e"/><rect x="32" y="20" width="4" height="4" fill="#8a7c6e"/><rect x="36" y="20" width="4" height="4" fill="#8a7c6e"/><rect x="40" y="20" width="4" height="4" fill="#8a7c6e"/><rect x="44" y="20" width="4" height="4" fill="#efe2c8"/><rect x="8" y="24" width="4" height="4" fill="#efe2c8"/><rect x="12" y="24" width="4" height="4" fill="#f2b300"/><rect x="16" y="24" width="4" height="4" fill="#f2b300"/><rect x="20" y="24" width="4" height="4" fill="#f2b300"/><rect x="24" y="24" width="4" height="4" fill="#f2b300"/><rect x="28" y="24" width="4" height="4" fill="#f2b300"/><rect x="32" y="24" width="4" height="4" fill="#f2b300"/><rect x="36" y="24" width="4" height="4" fill="#f2b300"/><rect x="40" y="24" width="4" height="4" fill="#f2b300"/><rect x="44" y="24" width="4" height="4" fill="#efe2c8"/><rect x="8" y="28" width="4" height="4" fill="#efe2c8"/><rect x="12" y="28" width="4" height="4" fill="#efe2c8"/><rect x="16" y="28" width="4" height="4" fill="#efe2c8"/><rect x="20" y="28" width="4" height="4" fill="#efe2c8"/><rect x="24" y="28" width="4" height="4" fill="#efe2c8"/><rect x="28" y="28" width="4" height="4" fill="#efe2c8"/><rect x="32" y="28" width="4" height="4" fill="#efe2c8"/><rect x="36" y="28" width="4" height="4" fill="#efe2c8"/><rect x="40" y="28" width="4" height="4" fill="#efe2c8"/><rect x="44" y="28" width="4" height="4" fill="#efe2c8"/><rect x="8" y="32" width="4" height="4" fill="#efe2c8"/><rect x="12" y="32" width="4" height="4" fill="#7a0a12"/><rect x="16" y="32" width="4" height="4" fill="#c1121f"/><rect x="20" y="32" width="4" height="4" fill="#c1121f"/><rect x="24" y="32" width="4" height="4" fill="#c1121f"/><rect x="28" y="32" width="4" height="4" fill="#c1121f"/><rect x="32" y="32" width="4" height="4" fill="#c1121f"/><rect x="36" y="32" width="4" height="4" fill="#c1121f"/><rect x="40" y="32" width="4" height="4" fill="#7a0a12"/><rect x="44" y="32" width="4" height="4" fill="#efe2c8"/><rect x="8" y="36" width="4" height="4" fill="#efe2c8"/><rect x="12" y="36" width="4" height="4" fill="#7a0a12"/><rect x="16" y="36" width="4" height="4" fill="#c1121f"/><rect x="20" y="36" width="4" height="4" fill="#c1121f"/><rect x="24" y="36" width="4" height="4" fill="#c1121f"/><rect x="28" y="36" width="4" height="4" fill="#c1121f"/><rect x="32" y="36" width="4" height="4" fill="#c1121f"/><rect x="36" y="36" width="4" height="4" fill="#c1121f"/><rect x="40" y="36" width="4" height="4" fill="#7a0a12"/><rect x="44" y="36" width="4" height="4" fill="#efe2c8"/><rect x="12" y="40" width="4" height="4" fill="#efe2c8"/><rect x="16" y="40" width="4" height="4" fill="#efe2c8"/><rect x="20" y="40" width="4" height="4" fill="#efe2c8"/><rect x="24" y="40" width="4" height="4" fill="#efe2c8"/><rect x="28" y="40" width="4" height="4" fill="#efe2c8"/><rect x="32" y="40" width="4" height="4" fill="#efe2c8"/><rect x="36" y="40" width="4" height="4" fill="#efe2c8"/><rect x="40" y="40" width="4" height="4" fill="#efe2c8"/>
</svg>
